<?xml version="1.0" encoding="UTF-8" standalone="no"?>
<svg width="40px" height="40px" version="1.1" xmlns="http://www.w3.org/2000/svg" xmlns:xlink="http://www.w3.org/1999/xlink" xmlns:sketch="http://www.bohemiancoding.com/sketch/ns">
    <description>Created with Sketch (http://www.bohemiancoding.com/sketch)</description>
    <g id="hamburger" fill="hsla(0,0%,0%,.3)" fill-rule="evenodd">
        <path d="M12.9950893,24 C11.8932319,24 11,24.8877296 11,26 L11,26 C11,27.1045695 11.8926228,28 12.9950893,28 L27.0049107,28 C28.1067681,28 29,27.1122704 29,26 L29,26 C29,24.8954305 28.1073772,24 27.0049107,24 L12.9950893,24 Z M12.9950893,24"></path>
        <path d="M12.9950893,18 C11.8932319,18 11,18.8877296 11,20 L11,20 C11,21.1045695 11.8926228,22 12.9950893,22 L27.0049107,22 C28.1067681,22 29,21.1122704 29,20 L29,20 C29,18.8954305 28.1073772,18 27.0049107,18 L12.9950893,18 Z M12.9950893,18"></path>
        <path d="M12.9950893,12 C11.8932319,12 11,12.8877296 11,14 L11,14 C11,15.1045695 11.8926228,16 12.9950893,16 L27.0049107,16 C28.1067681,16 29,15.1122704 29,14 L29,14 C29,12.8954305 28.1073772,12 27.0049107,12 L12.9950893,12 Z M12.9950893,12"></path>
    </g>
</svg>