<?xml version="1.0" encoding="UTF-8" standalone="no"?>
<svg width="40px" height="100px" viewBox="0 0 40 100" version="1.1" xmlns="http://www.w3.org/2000/svg" xmlns:xlink="http://www.w3.org/1999/xlink" xmlns:sketch="http://www.bohemiancoding.com/sketch/ns">
    <title>stamp</title>
    <description>Created with Sketch (http://www.bohemiancoding.com/sketch)</description>
    <defs></defs>
    <g id="Page-1" stroke="none" stroke-width="1" fill="none" fill-rule="evenodd" sketch:type="MSPage">
        <path d="M2.823,0.061 C4.629,-0.299 5.212,1.065 6.588,1.214 C7.609,1.325 8.834,1.084 10,1 C11.137,0.917 11.795,0.886 13,1 C14.375,1.13 15.963,1.419 17.343,1.303 C18.166,1.234 18.951,0.824 19.763,0.682 C20.634,0.53 21.494,0.504 22.451,0.504 C24.206,0.504 25.793,0.84 27.627,1.125 C29.305,1.387 31.245,1.222 33.005,1.037 C35.725,0.75 38.75,-0.468 39.593,2.545 C40,4 39.712,9.538 39.391,12.925 C39.286,14.041 39.54,15.416 39.526,16.74 C39.502,18.824 39.728,20.945 39.728,23.216 C39.728,24.311 39.598,25.447 39.593,26.586 C39.573,31.299 38.932,35.555 39.122,39.806 C39.168,40.841 39.316,41.933 39.391,42.999 C39.759,48.283 39.758,53.954 39.593,59.767 C39.527,62.114 39.741,64.536 39.526,66.776 C39.414,67.942 38.787,69.175 38.719,70.591 C38.616,72.728 38.894,75.25 38.989,77.599 C39.085,79.993 39.03,82.437 39.123,84.608 C39.266,87.946 40.076,95.62 38.854,98.27 C38.643,98.727 38.236,99.28 37.577,99.601 C36.288,100.228 34.741,99.745 33.208,99.512 C30.015,99.029 26.903,100.209 23.864,99.69 C22.42,99.443 20.903,99.274 19.293,99.601 C18.072,99.849 16.272,99.727 14.79,99.867 C11.599,100.169 8.649,99.894 5.379,99.69 C3.948,99.6 1.731,99.853 1.009,99.157 C0.314,98.486 -0.01,95.607 0.001,93.125 C0.006,92.074 0.264,91.021 0.337,89.932 C0.564,86.617 0.232,82.961 0.337,79.463 C0.406,77.183 0.13,74.824 0.337,72.72 C0.566,70.397 0.744,68.349 0.607,66.067 C0.469,63.801 0.607,61.52 0.607,58.969 C0.607,56.515 0.424,54.194 0.54,51.961 C0.652,49.772 0.4,47.701 0.405,45.396 C0.416,41.237 1.568,38.423 1.48,35.105 C1.436,33.407 1.038,32.212 0.943,30.758 C0.879,29.768 1.039,28.644 1.009,27.564 C0.984,26.547 0.797,25.606 0.808,24.814 C0.822,23.803 1.159,22.795 1.211,21.797 C1.445,17.401 0.43,11.737 0.674,6.273 C0.815,3.054 0.711,0.482 2.823,0.061 L2.823,0.061 Z M26.216,28.805 C28.356,29.019 33.144,30.041 34.35,27.829 C35.533,25.659 33.876,23.092 32.737,22.417 C31.804,21.865 30.218,21.855 28.838,21.619 C27.477,21.386 25.511,21.516 25.545,20.021 C25.577,18.604 27.54,18.66 28.637,18.602 C29.866,18.538 32.091,18.764 32.132,17.715 C32.188,16.311 28.348,16.565 26.889,16.472 C25.409,16.379 21.276,17.463 21.445,14.964 C21.538,13.594 22.743,13.999 24.805,13.999 C28.001,13.999 32.989,15.103 34.552,11.947 C34.753,11.542 37.001,7.999 34.552,8.044 C33.827,8.058 33.618,9.203 33.409,9.907 C32.817,11.906 31.817,12.036 29.847,11.858 C27.52,11.649 23.803,12.297 22.251,11.415 C20.87,10.631 21.98,5.53 20.032,5.826 C18.94,5.993 19.199,7.481 19.092,8.754 C18.888,11.163 18.168,11.858 16.336,11.947 C14.666,12.03 12.934,11.806 11.496,11.858 C10.413,11.897 9.575,12.243 8.673,11.858 C7.482,11.351 7.489,7.827 6.253,7.867 C5.005,7.907 5.036,10.613 5.446,11.77 C5.937,13.157 7.793,14.459 10.084,14.519 C11.152,14.548 11.815,14.203 12.437,14.165 C13.147,14.123 13.851,14.268 14.791,14.254 C15.887,14.239 18.717,13.475 18.823,14.964 C18.897,15.987 17.957,16.374 17.21,16.472 C15.898,16.645 14.852,16.322 13.177,16.472 C12.313,16.55 11.326,16.745 10.22,16.827 C9.062,16.912 7.908,17.172 8.001,18.157 C8.084,19.024 8.966,18.831 10.018,18.778 C11.622,18.699 13.841,18.596 13.85,20.02 C13.858,21.378 11.89,21.63 10.623,21.794 C9.261,21.971 7.681,21.912 6.59,22.504 C5.783,22.942 5.024,24.178 4.842,24.9 C4.665,25.605 4.65,27.171 5.178,28.093 C6.45,30.312 10.015,29.62 12.371,29.246 C13.369,29.088 14.302,28.712 14.992,29.069 C16.007,29.592 15.855,30.845 16.471,31.818 C17.21,32.986 19.122,34.045 20.774,34.214 C21.566,34.295 23.591,33.883 23.665,35.101 C23.717,35.963 22.75,36.385 22.253,36.787 C21.558,37.349 21.218,37.925 20.439,38.029 C18.528,38.285 17.749,35.036 15.666,35.456 C14.931,35.605 14.664,36.575 13.919,36.876 C12.725,37.358 11.307,37.344 9.684,37.586 C8.798,37.718 5.29,38.51 5.382,39.538 C5.472,40.556 7.344,40.028 8.273,39.892 C9.497,39.712 10.31,39.304 11.365,39.182 C12.109,39.096 12.741,39.112 13.314,39.004 C13.963,38.884 14.544,38.636 15.129,38.561 C16.009,38.449 17.562,38.501 17.414,39.714 C17.251,41.054 12.805,40.439 11.7,40.602 C11.101,40.69 10.659,40.992 10.221,41.045 C9.181,41.173 8.266,40.943 7.533,41.399 C5.937,42.391 6.364,45.376 7.734,46.278 C8.925,47.063 12.114,47.219 13.851,47.078 C14.914,46.99 17.846,46.179 17.683,47.609 C17.6,48.326 14.989,48.341 13.918,48.408 C12.43,48.499 11.048,48.287 9.885,48.675 C8.348,49.187 6.44,50.167 5.918,51.692 C5.55,52.769 5.183,55.609 5.111,56.837 C4.975,59.211 4.653,64.156 6.255,64.2 C7.579,64.237 7.3,62.179 7.465,60.386 C7.531,59.668 7.705,59.025 7.734,58.524 C7.868,56.147 7.308,54.119 8.137,52.401 C8.757,51.118 10.261,50.247 11.767,50.095 C12.38,50.033 13.131,50.161 13.784,50.095 C14.873,49.984 15.736,50.059 16.675,49.998 C17.234,49.963 17.795,49.953 18.422,49.998 C20.031,50.111 21.677,49.74 23.262,49.74 C24.845,49.74 26.335,49.845 27.901,50.007 C28.654,50.083 29.45,49.898 30.186,50.007 C32.269,50.315 32.817,52.664 32.472,55.329 C32.103,58.173 30.343,58.176 27.766,58.257 C25.185,58.338 22.109,58.215 19.565,58.434 C18,58.571 16.522,58.384 15.331,58.524 C14.816,58.583 14.212,58.915 13.584,59.055 C13.076,59.169 12.532,59.135 12.172,59.322 C11.605,59.616 10.987,60.704 11.029,61.452 C11.141,63.462 13.878,64.117 15.533,64.113 C16.679,64.11 19.069,63.526 19.095,65.266 C19.116,66.684 17.758,66.685 16.339,66.685 C14.942,66.685 13.704,66.792 12.642,66.863 C11.325,66.949 10.688,66.798 9.079,66.863 C8.327,66.893 6.355,67.023 6.324,67.927 C6.296,68.727 6.999,68.653 7.332,68.726 C9.537,69.205 11.73,69.103 14.188,68.998 C14.877,68.969 18.207,68.221 18.893,69.08 C19.374,69.682 19.803,74.146 18.086,74.226 C17.296,74.263 16.481,72.981 16.272,72.717 C14.941,71.05 13.749,70.518 11.432,70.5 C10.392,70.491 6.946,70.189 7.197,71.83 C7.34,72.76 9.982,72.585 10.827,72.54 C12.063,72.476 14.151,72.223 14.054,73.782 C13.963,75.235 10.481,74.751 9.55,74.846 C8.19,74.985 4.853,74.757 5.047,76.354 C5.171,77.381 6.737,76.892 7.803,76.798 C8.683,76.72 9.736,76.902 10.289,76.887 C10.923,76.869 11.882,76.522 12.844,76.444 C14.036,76.345 15.314,76.525 16.406,76.444 C17.195,76.383 18.849,75.854 18.893,76.975 C18.939,78.129 17.073,78.144 16.205,78.395 C13.913,79.055 12.747,79.977 11.097,81.588 C10.342,82.325 9.395,83.047 8.946,83.806 C8.415,84.704 8.023,86.196 7.535,87.533 C7.348,88.042 7.119,88.756 6.997,89.395 C6.873,90.046 6.642,91.079 7.131,91.525 C8.372,91.391 8.525,89.458 9.149,88.154 C10.139,86.084 12.098,83.982 13.854,82.299 C14.568,81.614 17.722,78.922 18.895,80.702 C19.472,81.578 18.973,83.692 18.962,84.961 C18.958,85.42 19.068,85.913 19.097,86.647 C19.192,89.166 18.701,93.667 20.307,93.655 C21.631,93.646 21.412,90.494 21.517,88.598 C21.572,87.596 21.804,86.746 21.786,85.937 C21.746,84.184 20.916,81.317 22.055,80.348 C22.586,79.896 23.997,80.133 24.743,80.524 C25.346,80.84 25.966,81.556 26.626,82.123 C27.301,82.701 28.032,83.105 28.575,83.631 C29.36,84.39 29.967,85.735 30.458,86.648 C30.897,87.468 31.573,88.469 31.869,89.487 C32.009,89.966 32.048,90.71 32.205,91.084 C32.559,91.929 33.448,92.629 34.088,92.237 C35.025,91.663 33.94,89.176 33.617,88.156 C32.951,86.052 32.068,84.409 31.062,83.01 C30.115,81.693 28.996,80.168 27.768,79.372 C26.952,78.843 25.781,78.685 24.81,78.308 C24.138,78.046 23.018,78.006 22.794,76.8 C23.153,76.01 24.358,76.48 25.28,76.533 C26.713,76.617 28.29,76.4 29.515,76.445 C30.687,76.486 35.503,77.523 35.565,75.912 C35.627,74.291 32.439,74.549 31.196,74.582 C30.259,74.606 29.311,74.421 28.641,74.315 C27.79,74.182 26.619,74.25 26.557,73.428 C26.496,72.614 27.477,72.355 27.834,72.275 C28.532,72.118 29.172,72.196 29.918,72.186 C30.77,72.174 33.467,72.546 33.548,71.476 C33.631,70.38 32.358,70.265 31.8,70.234 C31.154,70.197 30.438,70.367 29.717,70.411 C28.965,70.459 28.178,70.23 27.497,70.323 C26.459,70.465 25.432,71.175 24.741,71.831 C23.932,72.602 23.627,74.142 22.456,74.049 C21.126,73.945 21.039,70.164 21.717,69.17 C22.368,68.215 24.499,68.46 26.221,68.46 C28.133,68.46 29.961,68.392 30.993,68.46 C31.854,68.518 34.689,69.424 34.758,67.928 C34.828,66.394 31.896,67.012 30.321,66.864 C29.789,66.814 28.952,66.556 28.304,66.509 C27.329,66.438 25.743,66.754 24.472,66.687 C23.28,66.624 21.638,66.429 21.784,65.001 C21.907,63.801 23.564,64.025 24.741,64.025 C27.597,64.025 29.316,63.794 32.203,63.936 C33.14,63.982 35.435,64.538 35.497,63.493 C35.549,62.626 34.352,62.605 33.278,62.605 C30.554,62.605 27.599,62.768 24.943,62.605 C23.152,62.496 21.428,62.598 19.499,62.694 C17.902,62.773 14.462,62.992 14.659,61.364 C14.742,60.678 16.477,60.44 17.012,60.387 C18.217,60.27 19.088,60.485 20.104,60.387 C22.067,60.199 24.274,60.085 26.625,60.21 C27.646,60.263 28.771,60.354 29.852,60.21 C32.386,59.871 33.769,59.693 34.356,57.016 C34.517,56.279 34.429,55.391 34.49,54.266 C34.528,53.572 34.659,52.951 34.625,52.492 C34.522,51.074 33.64,49.639 32.811,49.121 C30.943,47.95 28.37,48.582 25.82,48.322 C25.188,48.259 23.068,48.178 23.064,47.435 C23.059,46.497 25.064,46.725 26.424,46.725 C28.028,46.725 29.211,46.87 30.391,46.725 C32.12,46.512 33.854,45.598 33.819,43.532 C33.765,40.279 29.814,40.36 27.366,40.515 C26.273,40.584 23.199,40.54 23.4,39.184 C23.518,38.391 26.878,38.479 27.5,38.563 C28.174,38.654 28.589,38.964 29.383,39.095 C30.163,39.225 31.412,39.283 32.408,39.45 C33.304,39.599 34.92,40.038 34.962,39.006 C35.006,37.946 31.286,37.451 30.525,37.321 C29.234,37.098 26.088,37.175 26.088,35.546 C26.088,34.194 27.642,34.446 28.911,34.305 C30.158,34.164 31.054,34.449 32.34,34.571 C33.388,34.67 34.931,34.724 34.895,33.684 C34.864,32.807 33.347,32.723 32.541,32.619 C31.398,32.472 30.328,32.61 29.382,32.53 C28.515,32.458 27.426,32.249 26.424,32.176 C25.304,32.093 24.099,32.287 23.736,31.467 C23.698,29.169 24.542,28.638 26.216,28.805 L26.216,28.805 Z M21.645,51.25 C20.93,51.268 19.762,51.07 19.091,51.073 C17.439,51.079 16.001,51.339 14.386,51.515 C13.031,51.664 10.398,51.952 10.621,53.29 C10.821,54.494 13.929,53.546 14.855,53.467 C15.891,53.378 16.392,53.208 17.074,53.112 C17.992,52.984 18.92,53.145 18.888,54.089 C18.864,54.823 18.06,55.156 17.477,55.242 C16.204,55.43 14.852,55.201 13.04,55.419 C12.092,55.534 9.905,56.113 10.082,57.283 C10.221,58.196 11.878,57.809 12.301,57.726 C13.941,57.402 15.115,57.02 16.468,56.749 C17.906,56.463 19.706,56.579 21.51,56.66 C23.466,56.75 25.477,56.559 27.156,56.572 C27.773,56.577 28.54,56.723 28.971,56.483 C29.571,56.15 30.24,54.756 30.18,53.732 C30.04,51.29 26.46,50.972 24.668,51.072 C23.772,51.122 22.622,51.228 21.645,51.25 Z M13.108,42.468 C13.156,42.465 14.966,42.07 15.125,43.355 C15.313,44.889 13.461,45.046 12.234,45.041 C11.14,45.035 9.145,44.981 9.074,43.799 C9.015,42.814 10.308,42.49 10.688,42.469 C11.456,42.422 12.169,42.52 13.108,42.468 Z M19.292,42.289 C20.46,42.112 22.675,41.716 22.721,43.354 C22.782,45.516 17.752,45.1 17.746,43.443 C17.743,42.484 18.466,42.415 19.292,42.289 Z M28.3,42.201 C29.123,42.149 31.094,41.894 31.325,43.088 C31.724,45.151 29.274,44.716 28.031,44.596 C26.875,44.486 25.836,44.625 25.745,43.533 C25.601,41.778 27.082,42.277 28.3,42.201 Z M23.191,19.224 C23.178,21.151 23.178,22.226 24.266,22.861 C25.371,23.507 27.468,23.341 29.106,23.482 C30.421,23.596 33.125,23.826 32.333,26.321 C31.931,27.589 29.314,27.324 28.098,27.209 C27.222,27.126 25.517,26.718 24.804,26.321 C24.132,25.947 23.791,24.8 22.856,24.902 C21.304,25.07 22.252,28.569 21.579,30.313 C21.141,31.448 19.413,32.294 18.487,31.201 C17.745,30.326 17.911,28.829 17.814,27.12 C17.742,25.849 17.342,24.671 16.604,24.636 C15.465,24.583 15.592,26.141 14.856,26.676 C13.983,27.313 12.46,27.054 11.294,27.12 C9.749,27.209 7.19,28.117 7.328,25.611 C7.394,24.414 8.29,24.196 9.412,24.014 C10.353,23.863 11.474,23.638 12.37,23.571 C14.218,23.432 15.713,23.647 16.134,21.62 C16.294,20.85 16.059,19.654 16.269,19.224 C16.753,18.231 19.339,18.779 20.773,18.692 C21.599,18.641 22.831,18.556 23.191,19.224 Z" id="simurai" fill="#CC2828" sketch:type="MSShapeGroup"></path>
    </g>
</svg>